<?xml version="1.0" standalone="no"?>
<!DOCTYPE svg PUBLIC "-//W3C//DTD SVG 20010904//EN"
 "http://www.w3.org/TR/2001/REC-SVG-20010904/DTD/svg10.dtd">
<svg version="1.0" xmlns="http://www.w3.org/2000/svg"
 width="200.000000pt" height="200.000000pt" viewBox="0 0 200.000000 200.000000"
 preserveAspectRatio="xMidYMid meet">

<g transform="translate(0.000000,200.000000) scale(0.100000,-0.100000)"
fill="#000000" stroke="none">
<path d="M710 1730 l0 -70 256 0 c303 0 330 -5 394 -69 87 -87 90 -208 6 -299
-49 -55 -60 -57 -366 -62 l-285 -5 -3 -72 -3 -73 129 0 130 0 154 -177 154
-178 92 -3 c51 -1 92 0 92 3 0 3 -67 83 -150 178 l-150 172 71 7 c208 22 353
189 336 387 -10 113 -62 205 -151 265 -89 60 -127 66 -433 66 l-273 0 0 -70z"/>
<path d="M682 1529 c-113 -22 -233 -113 -285 -215 -82 -163 -47 -359 87 -482
102 -93 176 -114 383 -110 l143 3 -63 67 -62 66 -92 6 c-147 8 -229 55 -274
160 -56 130 -3 278 123 340 51 26 54 26 289 26 181 0 238 3 241 13 2 6 2 40 0
75 l-4 62 -221 -1 c-122 -1 -241 -5 -265 -10z"/>
<path d="M557 572 c-22 -24 -21 -65 1 -85 32 -29 106 -18 87 13 -4 7 -12 7
-25 0 -14 -7 -23 -6 -34 6 -9 8 -16 19 -16 24 0 5 7 16 16 24 11 12 20 13 34
6 13 -7 21 -7 25 0 20 32 -60 43 -88 12z"/>
<path d="M707 578 c-49 -38 -19 -108 46 -108 59 0 90 66 49 103 -22 20 -71 22
-95 5z m73 -48 c0 -31 -16 -42 -42 -28 -23 11 -23 44 -1 56 25 15 43 3 43 -28z"/>
<path d="M850 530 c0 -53 2 -60 20 -60 11 0 20 7 20 15 0 8 4 15 9 15 5 0 14
-7 21 -15 14 -17 40 -20 40 -6 0 6 -5 13 -10 16 -7 4 -5 14 5 28 19 27 19 32
-1 51 -9 10 -33 16 -60 16 l-44 0 0 -60z m80 15 c0 -8 -9 -15 -20 -15 -11 0
-20 7 -20 15 0 8 9 15 20 15 11 0 20 -7 20 -15z"/>
<path d="M1015 533 c-27 -60 -26 -74 5 -55 25 15 67 16 72 1 2 -6 11 -10 20
-8 13 4 12 12 -10 62 -33 76 -54 76 -87 0z m55 -4 c0 -5 -4 -9 -10 -9 -5 0
-10 7 -10 16 0 8 5 12 10 9 6 -3 10 -10 10 -16z"/>
<path d="M1150 575 c0 -9 9 -15 25 -15 14 0 25 -4 25 -8 0 -5 -11 -19 -25 -32
-40 -38 -33 -50 30 -50 42 0 55 3 55 15 0 10 -10 15 -31 15 l-30 0 30 37 c17
21 31 41 31 45 0 5 -25 8 -55 8 -42 0 -55 -3 -55 -15z"/>
<path d="M1306 574 c-9 -8 -16 -28 -16 -44 0 -38 24 -60 64 -60 58 0 89 66 48
103 -23 21 -76 22 -96 1z m68 -20 c20 -19 20 -29 0 -48 -19 -20 -54 -5 -54 24
0 15 21 37 37 40 1 0 9 -7 17 -16z"/>
<path d="M1460 530 c0 -47 3 -60 15 -60 8 0 15 7 15 15 0 8 4 15 9 15 5 0 14
-7 21 -15 7 -8 21 -15 32 -15 17 0 18 3 9 14 -9 11 -9 20 -2 35 6 11 11 24 11
30 0 22 -33 41 -71 41 l-39 0 0 -60z m70 15 c0 -8 -9 -15 -20 -15 -11 0 -20 7
-20 15 0 8 9 15 20 15 11 0 20 -7 20 -15z"/>
</g>
</svg>
